<?xml version="1.0" encoding="UTF-8"?><svg id="Layer_1" xmlns="http://www.w3.org/2000/svg" width="1200" height="200" viewBox="0 0 1200 200"><g id="line"><line y1="72.858" x2="2.5" y2="72.858" fill="none" stroke="#231f20" stroke-miterlimit="10"/><line x1="7.512" y1="72.858" x2="1187.818" y2="72.858" fill="none" stroke="#231f20" stroke-dasharray="0 0 5.012 5.012" stroke-miterlimit="10"/><line x1="1190.324" y1="72.858" x2="1192.824" y2="72.858" fill="none" stroke="#231f20" stroke-miterlimit="10"/><polygon points="1191.365 77.845 1200 72.858 1191.365 67.872 1191.365 77.845" fill="#231f20"/></g><g id="penang"><path d="m129.046,92.6c.262.484.037.781-.5.66l-13.281-1.715c-.55-.004-1.046.44-1.102.987l-1.426,13.594c-.058.547-.485.752-.949.456l-9.823-6.249c-.47-.285-1.06-.118-1.31.371l-7.968,15.672c-.245.493-.581.467-.748-.057l-4.052-12.834c-.166-.524-.705-.755-1.199-.512l-11.934,3.738c-.542.094-.95-.277-.907-.826l1.035-12.255c.049-.548-.316-1.192-.811-1.432l-13.777-8.114c-.445-.323-.427-.825.04-1.115l11.786-9.908c.374-.403.402-1.086.062-1.519l-8.225-9.82c-.356-.42-.201-.824.344-.898l13.658-2.137c.542-.096.924-.62.85-1.165l-2.234-18.236c-.06-.547.246-.719.681-.382l11.665,8.988c.424.351.909.21,1.079-.313l5.126-15.261c.18-.52.544-.551.81-.069l8.613,14.416c.303.459.976.691,1.497.515l8.743-2.813c.531-.142.947.191.924.74l-.478,10.62c-.026.549.401,1.031.949,1.071l14.279.951c.549.031.739.424.422.873l-5.847,8.318c-.323.445-.213,1.06.244,1.366l10.802,8.625c.414.362.306.712-.24.778l-12.63,2.739c-.524.168-.718.689-.432,1.158l6.259,10.994Z" fill="#8dc63f"/><path d="m129.046,92.6c.262.484.037.781-.5.66l-13.281-1.715c-.55-.004-1.046.44-1.102.987l-1.426,13.594c-.058.547-.485.752-.949.456l-9.823-6.249c-.47-.285-1.06-.118-1.31.371l-7.968,15.672c-.245.493-.581.467-.748-.057l-4.052-12.834c-.166-.524-.705-.755-1.199-.512l-11.934,3.738c-.542.094-.95-.277-.907-.826l1.035-12.255c.049-.548-.316-1.192-.811-1.432l-13.777-8.114c-.445-.323-.427-.825.04-1.115l11.786-9.908c.374-.403.402-1.086.062-1.519l-8.225-9.82c-.356-.42-.201-.824.344-.898l13.658-2.137c.542-.096.924-.62.85-1.165l-2.234-18.236c-.06-.547.246-.719.681-.382l11.665,8.988c.424.351.909.21,1.079-.313l5.126-15.261c.18-.52.544-.551.81-.069l8.613,14.416c.303.459.976.691,1.497.515l8.743-2.813c.531-.142.947.191.924.74l-.478,10.62c-.026.549.401,1.031.949,1.071l14.279.951c.549.031.739.424.422.873l-5.847,8.318c-.323.445-.213,1.06.244,1.366l10.802,8.625c.414.362.306.712-.24.778l-12.63,2.739c-.524.168-.718.689-.432,1.158l6.259,10.994Z" fill="none" stroke="#231f20" stroke-miterlimit="10" stroke-width=".75"/><text transform="translate(47.565 156.355)" font-family="Manofa-CondensedLight, Manofa" font-size="29.111" font-weight="300"><tspan x="0" y="0">PE</tspan><tspan x="30.828" y="0" letter-spacing="-.03em">N</tspan><tspan x="48.148" y="0">ANG</tspan></text></g><g id="johor"><path d="m630.939,91.749c.262.484.037.781-.5.66l-13.281-1.715c-.55-.004-1.046.44-1.102.987l-1.425,13.594c-.058.547-.485.752-.949.456l-9.823-6.249c-.47-.285-1.06-.118-1.31.371l-7.968,15.672c-.245.493-.581.467-.748-.057l-4.052-12.834c-.166-.524-.705-.755-1.199-.512l-11.934,3.738c-.542.094-.95-.277-.907-.826l1.035-12.255c.049-.548-.316-1.192-.811-1.432l-13.776-8.114c-.445-.323-.427-.825.04-1.115l11.786-9.908c.374-.403.402-1.086.062-1.519l-8.225-9.82c-.356-.42-.201-.824.344-.898l13.658-2.137c.542-.096.924-.62.85-1.165l-2.234-18.236c-.06-.547.246-.719.681-.382l11.665,8.988c.424.351.909.21,1.079-.313l5.126-15.261c.18-.52.544-.551.81-.069l8.613,14.416c.303.459.976.691,1.497.515l8.743-2.813c.531-.142.947.191.924.74l-.478,10.62c-.026.549.401,1.031.949,1.071l14.279.951c.549.031.739.424.422.873l-5.847,8.318c-.323.445-.213,1.06.244,1.366l10.803,8.625c.414.362.306.712-.24.778l-12.63,2.739c-.524.168-.718.689-.432,1.158l6.259,10.994Z" fill="#8dc63f"/><path d="m630.939,91.749c.262.484.037.781-.5.66l-13.281-1.715c-.55-.004-1.046.44-1.102.987l-1.425,13.594c-.058.547-.485.752-.949.456l-9.823-6.249c-.47-.285-1.06-.118-1.31.371l-7.968,15.672c-.245.493-.581.467-.748-.057l-4.052-12.834c-.166-.524-.705-.755-1.199-.512l-11.934,3.738c-.542.094-.95-.277-.907-.826l1.035-12.255c.049-.548-.316-1.192-.811-1.432l-13.776-8.114c-.445-.323-.427-.825.04-1.115l11.786-9.908c.374-.403.402-1.086.062-1.519l-8.225-9.82c-.356-.42-.201-.824.344-.898l13.658-2.137c.542-.096.924-.62.85-1.165l-2.234-18.236c-.06-.547.246-.719.681-.382l11.665,8.988c.424.351.909.21,1.079-.313l5.126-15.261c.18-.52.544-.551.81-.069l8.613,14.416c.303.459.976.691,1.497.515l8.743-2.813c.531-.142.947.191.924.74l-.478,10.62c-.026.549.401,1.031.949,1.071l14.279.951c.549.031.739.424.422.873l-5.847,8.318c-.323.445-.213,1.06.244,1.366l10.803,8.625c.414.362.306.712-.24.778l-12.63,2.739c-.524.168-.718.689-.432,1.158l6.259,10.994Z" fill="none" stroke="#231f20" stroke-miterlimit="10" stroke-width=".75"/><text transform="translate(555.566 157.635)" font-family="Manofa-CondensedLight, Manofa" font-size="29.111" font-weight="300"><tspan x="0" y="0">JOHOR</tspan></text></g><g id="pahang"><path d="m1046.385,92.6c.262.484.037.781-.5.66l-13.281-1.715c-.55-.004-1.046.44-1.102.987l-1.426,13.594c-.058.547-.485.752-.949.456l-9.823-6.249c-.47-.285-1.06-.118-1.31.371l-7.968,15.672c-.245.493-.581.467-.748-.057l-4.052-12.834c-.166-.524-.705-.755-1.199-.512l-11.934,3.738c-.542.094-.95-.277-.906-.826l1.035-12.255c.049-.548-.316-1.192-.811-1.432l-13.777-8.114c-.445-.323-.427-.825.04-1.115l11.786-9.908c.374-.403.402-1.086.062-1.519l-8.225-9.82c-.356-.42-.201-.824.344-.898l13.658-2.137c.542-.096.924-.62.85-1.165l-2.234-18.236c-.06-.547.246-.719.681-.382l11.665,8.988c.424.351.909.21,1.079-.313l5.126-15.261c.18-.52.544-.551.81-.069l8.613,14.416c.303.459.976.691,1.497.515l8.743-2.813c.531-.142.947.191.924.74l-.478,10.62c-.026.549.401,1.031.949,1.071l14.28.951c.549.031.739.424.422.873l-5.848,8.318c-.323.445-.213,1.06.244,1.366l10.803,8.625c.414.362.306.712-.24.778l-12.63,2.739c-.524.168-.718.689-.431,1.158l6.259,10.994Z" fill="#8dc63f"/><path d="m1046.385,92.6c.262.484.037.781-.5.66l-13.281-1.715c-.55-.004-1.046.44-1.102.987l-1.426,13.594c-.058.547-.485.752-.949.456l-9.823-6.249c-.47-.285-1.06-.118-1.31.371l-7.968,15.672c-.245.493-.581.467-.748-.057l-4.052-12.834c-.166-.524-.705-.755-1.199-.512l-11.934,3.738c-.542.094-.95-.277-.906-.826l1.035-12.255c.049-.548-.316-1.192-.811-1.432l-13.777-8.114c-.445-.323-.427-.825.04-1.115l11.786-9.908c.374-.403.402-1.086.062-1.519l-8.225-9.82c-.356-.42-.201-.824.344-.898l13.658-2.137c.542-.096.924-.62.85-1.165l-2.234-18.236c-.06-.547.246-.719.681-.382l11.665,8.988c.424.351.909.21,1.079-.313l5.126-15.261c.18-.52.544-.551.81-.069l8.613,14.416c.303.459.976.691,1.497.515l8.743-2.813c.531-.142.947.191.924.74l-.478,10.62c-.026.549.401,1.031.949,1.071l14.28.951c.549.031.739.424.422.873l-5.848,8.318c-.323.445-.213,1.06.244,1.366l10.803,8.625c.414.362.306.712-.24.778l-12.63,2.739c-.524.168-.718.689-.431,1.158l6.259,10.994Z" fill="none" stroke="#231f20" stroke-miterlimit="10" stroke-width=".75"/><text transform="translate(960.314 156.937)" font-family="Manofa-CondensedLight, Manofa" font-size="29.111" font-weight="300"><tspan x="0" y="0" letter-spacing="-.06em">P</tspan><tspan x="14.293" y="0" letter-spacing="0em">A</tspan><tspan x="31.119" y="0" letter-spacing="-.03em">H</tspan><tspan x="48.76" y="0">ANG</tspan></text></g><g id="sabah"><path d="m1143.365,92.174c.262.484.037.781-.5.66l-13.281-1.715c-.55-.004-1.046.44-1.102.987l-1.426,13.594c-.058.547-.485.752-.949.456l-9.823-6.249c-.47-.285-1.06-.118-1.31.371l-7.968,15.672c-.245.493-.581.467-.748-.057l-4.052-12.834c-.166-.524-.705-.755-1.199-.512l-11.934,3.738c-.542.094-.95-.277-.906-.826l1.035-12.255c.049-.548-.316-1.192-.811-1.432l-13.776-8.114c-.445-.323-.427-.825.04-1.115l11.786-9.908c.374-.403.402-1.086.062-1.519l-8.225-9.82c-.356-.42-.201-.824.344-.898l13.658-2.137c.542-.096.924-.62.85-1.165l-2.234-18.236c-.06-.547.246-.719.681-.382l11.665,8.988c.424.351.909.21,1.079-.313l5.126-15.261c.18-.52.544-.551.81-.069l8.613,14.416c.303.459.976.691,1.497.515l8.743-2.813c.531-.142.947.191.924.74l-.478,10.62c-.026.549.401,1.031.949,1.071l14.28.951c.549.031.739.424.422.873l-5.847,8.318c-.323.445-.213,1.06.244,1.366l10.802,8.625c.414.362.306.712-.24.778l-12.63,2.739c-.524.168-.718.689-.432,1.158l6.259,10.994Z" fill="#8dc63f"/><path d="m1143.365,92.174c.262.484.037.781-.5.66l-13.281-1.715c-.55-.004-1.046.44-1.102.987l-1.426,13.594c-.058.547-.485.752-.949.456l-9.823-6.249c-.47-.285-1.06-.118-1.31.371l-7.968,15.672c-.245.493-.581.467-.748-.057l-4.052-12.834c-.166-.524-.705-.755-1.199-.512l-11.934,3.738c-.542.094-.95-.277-.906-.826l1.035-12.255c.049-.548-.316-1.192-.811-1.432l-13.776-8.114c-.445-.323-.427-.825.04-1.115l11.786-9.908c.374-.403.402-1.086.062-1.519l-8.225-9.82c-.356-.42-.201-.824.344-.898l13.658-2.137c.542-.096.924-.62.85-1.165l-2.234-18.236c-.06-.547.246-.719.681-.382l11.665,8.988c.424.351.909.21,1.079-.313l5.126-15.261c.18-.52.544-.551.81-.069l8.613,14.416c.303.459.976.691,1.497.515l8.743-2.813c.531-.142.947.191.924.74l-.478,10.62c-.026.549.401,1.031.949,1.071l14.28.951c.549.031.739.424.422.873l-5.847,8.318c-.323.445-.213,1.06.244,1.366l10.802,8.625c.414.362.306.712-.24.778l-12.63,2.739c-.524.168-.718.689-.432,1.158l6.259,10.994Z" fill="none" stroke="#231f20" stroke-miterlimit="10" stroke-width=".75"/><text transform="translate(1076.211 156.354)" font-family="Manofa-CondensedLight, Manofa" font-size="29.111" font-weight="300"><tspan x="0" y="0" letter-spacing="-.02em">S</tspan><tspan x="14.963" y="0">A</tspan><tspan x="31.788" y="0" letter-spacing="-.02em">B</tspan><tspan x="47.916" y="0">AH</tspan></text></g></svg>